<svg id="Layer_1" data-name="Layer 1" xmlns="http://www.w3.org/2000/svg" viewBox="0 0 128 128"><defs><style>.cls-1{fill:#80bd72;}.cls-2{fill:#fff;fill-rule:evenodd;}</style></defs><title>icon-email</title><circle class="cls-1" cx="64" cy="64" r="64"/><path class="cls-2" d="M64,66.92c-5.71,0-35.1-23.68-35.1-23.68V40.63a5.85,5.85,0,0,1,5.85-5.84h58.5a5.85,5.85,0,0,1,5.85,5.84l0,2.92S70,66.92,64,66.92Zm0,8c6.25,0,35.05-22.63,35.05-22.63l0,35.05a5.85,5.85,0,0,1-5.85,5.84H34.75a5.85,5.85,0,0,1-5.85-5.84L29,52.32S58.29,75,64,75Z" transform="translate(0)"/></svg>