<svg xmlns="http://www.w3.org/2000/svg" viewBox="0 0 271.59 381.41"><defs><style>.cls-1{fill:#fff;}.cls-2{fill:none;stroke:#000;stroke-miterlimit:10;stroke-width:10px;}</style></defs><title>dl_docx_print</title><g id="Layer_2" data-name="Layer 2"><g id="Icons"><g id="dl_docx_print"><path class="cls-1" d="M20.29,304A15.31,15.31,0,0,1,5,288.71V20.29A15.31,15.31,0,0,1,20.29,5H185.94l80.65,80.65V288.71A15.31,15.31,0,0,1,251.3,304Z"/><path d="M183.87,10l77.72,77.72v201A10.31,10.31,0,0,1,251.3,299h-231A10.31,10.31,0,0,1,10,288.71V20.29A10.31,10.31,0,0,1,20.29,10H183.87M188,0H20.29A20.28,20.28,0,0,0,0,20.29V288.71A20.28,20.28,0,0,0,20.29,309h231a20.28,20.28,0,0,0,20.29-20.29V83.58L188,0Z"/><path class="cls-2" d="M188,6.2V64.1a19.48,19.48,0,0,0,19.48,19.48H265.3"/><path d="M71.6,134.77a20.62,20.62,0,0,1,10.51,2.87V119a5.26,5.26,0,0,1,10.52,0v52.47a5.23,5.23,0,0,1-5.3,5.21,5.3,5.3,0,0,1-4.77-3.05,21.37,21.37,0,0,1-11,3.05,21,21,0,0,1,0-41.95Zm0,31.44a10.47,10.47,0,1,0-10.42-10.42A10.45,10.45,0,0,0,71.6,166.21Z"/><path d="M141.77,155.79a21,21,0,1,1-21-21A21,21,0,0,1,141.77,155.79Zm-10.51,0a10.47,10.47,0,1,0-10.51,10.42A10.46,10.46,0,0,0,131.26,155.79Z"/><path d="M149,155.79c0-11.59,8.8-21,19.67-21a18.37,18.37,0,0,1,8.09,1.88,5.13,5.13,0,0,1,2.43,6.92,5.19,5.19,0,0,1-4.68,3.05,5.1,5.1,0,0,1-2.24-.53,8.41,8.41,0,0,0-3.6-.81c-5,0-9.16,4.67-9.16,10.51s4.13,10.42,9.16,10.42a8.41,8.41,0,0,0,3.6-.81,4.63,4.63,0,0,1,2.15-.45,5.25,5.25,0,0,1,4.77,3,5,5,0,0,1,.53,2.24,5.24,5.24,0,0,1-3,4.77,19.75,19.75,0,0,1-8.09,1.79C157.76,176.72,149,167.29,149,155.79Z"/><path d="M219.84,168a5.56,5.56,0,0,1,1.08,3.23,5,5,0,0,1-2.07,4.13,5.28,5.28,0,0,1-3.14,1.08,5.2,5.2,0,0,1-4.22-2.15l-7.46-10-7.73,10.34a5.36,5.36,0,0,1-4.22,2.06,5.28,5.28,0,0,1-3.14-1.08,5,5,0,0,1-2.07-4.13,5.3,5.3,0,0,1,1.08-3.14l9.52-12.76L188,142.85a4.88,4.88,0,0,1-1.08-3,5.24,5.24,0,0,1,2.07-4.23,5.34,5.34,0,0,1,3.14-1.07,5.2,5.2,0,0,1,4.22,2.06L204,146.89l7.46-10a5.21,5.21,0,0,1,4.22-2.06,5.16,5.16,0,0,1,3.14,1,5.07,5.07,0,0,1,2.07,4.14,5.59,5.59,0,0,1-1.08,3.23l-9.25,12.4Z"/><g id="Printer"><path class="cls-1" d="M198.35,281.13a5.55,5.55,0,0,1,5.55,5.54v44.81a5.55,5.55,0,0,1-5.55,5.54H73.24a5.55,5.55,0,0,1-5.55-5.54V286.67a5.55,5.55,0,0,1,5.55-5.54H198.35m0-20.42H73.24a26,26,0,0,0-26,26v44.81a26,26,0,0,0,26,26H198.35a26,26,0,0,0,26-26V286.67a26,26,0,0,0-26-26Z"/><rect class="cls-1" x="86.89" y="222.4" width="97.81" height="63.72" rx="11.29"/><path d="M173.41,227.5a6.19,6.19,0,0,1,6.19,6.18v41.14a6.19,6.19,0,0,1-6.19,6.19H98.18A6.18,6.18,0,0,1,92,274.82V233.68a6.18,6.18,0,0,1,6.18-6.18h75.23m0-10.21H98.18a16.41,16.41,0,0,0-16.39,16.39v41.14a16.41,16.41,0,0,0,16.39,16.4h75.23a16.41,16.41,0,0,0,16.39-16.4V233.68a16.41,16.41,0,0,0-16.39-16.39Z"/><path class="cls-1" d="M174,324.71a5.56,5.56,0,0,1,5.55,5.55v25.19A5.55,5.55,0,0,1,174,361H97.57A5.55,5.55,0,0,1,92,355.45V330.26a5.56,5.56,0,0,1,5.55-5.55H174m0-20.41H97.57a26,26,0,0,0-26,26v25.19a26,26,0,0,0,26,26H174a26,26,0,0,0,26-26V330.26a26,26,0,0,0-26-26Z"/><rect class="cls-1" x="62.59" y="276.02" width="146.41" height="66.1" rx="10.65"/><path d="M198.35,281.13a5.55,5.55,0,0,1,5.55,5.54v44.81a5.55,5.55,0,0,1-5.55,5.54H73.24a5.55,5.55,0,0,1-5.55-5.54V286.67a5.55,5.55,0,0,1,5.55-5.54H198.35m0-10.21H73.24a15.77,15.77,0,0,0-15.75,15.75v44.81a15.77,15.77,0,0,0,15.75,15.75H198.35a15.77,15.77,0,0,0,15.75-15.75V286.67a15.77,15.77,0,0,0-15.75-15.75Z"/><rect x="77.48" y="288.48" width="31.4" height="9.48" rx="4.74"/><rect class="cls-1" x="86.92" y="319.61" width="97.75" height="46.49" rx="10.65"/><path d="M174,324.71a5.56,5.56,0,0,1,5.55,5.55v25.19A5.55,5.55,0,0,1,174,361H97.57A5.55,5.55,0,0,1,92,355.45V330.26a5.56,5.56,0,0,1,5.55-5.55H174m0-10.2H97.57a15.76,15.76,0,0,0-15.75,15.75v25.19A15.77,15.77,0,0,0,97.57,371.2H174a15.77,15.77,0,0,0,15.75-15.75V330.26A15.76,15.76,0,0,0,174,314.51Z"/><rect x="101.76" y="346.54" width="68.06" height="7.2" rx="3.6"/><rect x="101.76" y="331.97" width="68.06" height="7.2" rx="3.6"/></g></g></g></g></svg>