<svg xmlns="http://www.w3.org/2000/svg" xmlns:xlink="http://www.w3.org/1999/xlink" viewBox="0 0 271.59 381.42"><defs><style>.cls-1{mask:url(#mask);}.cls-2{fill:#2b579a;}.cls-3{fill:#1f4068;}.cls-4,.cls-5{fill:#fff;}.cls-5{font-size:89.84px;font-family:Odin-Bold, Odin Rounded;font-weight:700;}.cls-6{filter:url(#luminosity-noclip);}</style><filter id="luminosity-noclip" x="0" y="-113.88" width="385.47" height="422.88" filterUnits="userSpaceOnUse" color-interpolation-filters="sRGB"><feFlood flood-color="#fff" result="bg"/><feBlend in="SourceGraphic" in2="bg"/></filter><mask id="mask" x="0" y="-113.88" width="385.47" height="422.88" maskUnits="userSpaceOnUse"><g class="cls-6"><rect x="190.91" y="-72.51" width="172.48" height="133.91" transform="translate(77.25 -197.6) rotate(45)"/></g></mask></defs><title>dl_docx</title><g id="Layer_2" data-name="Layer 2"><g id="Icons"><g id="dl_docx"><g class="cls-1"><rect class="cls-2" width="271.59" height="309" rx="20.29"/><path class="cls-3" d="M271.59,0H188V64.1a19.48,19.48,0,0,0,19.48,19.48h64.1Z"/></g><g id="Arrow"><path class="cls-2" d="M135.8,376.31a10.66,10.66,0,0,1-8.49-4.17l-44-57-.17-.32a10.72,10.72,0,0,1,9.32-16h16.41a.51.51,0,0,0,.51-.51V233.11a10.72,10.72,0,0,1,10.71-10.71h31.43a10.72,10.72,0,0,1,10.71,10.71V298.3a.5.5,0,0,0,.51.5h16.41a10.72,10.72,0,0,1,9.33,16l-.18.32-44,57A10.64,10.64,0,0,1,135.8,376.31Z"/><path class="cls-4" d="M151.51,227.5a5.61,5.61,0,0,1,5.61,5.61V298.3a5.61,5.61,0,0,0,5.61,5.61h16.41a5.6,5.6,0,0,1,4.88,8.37L140.24,369a5.61,5.61,0,0,1-8.89,0L87.57,312.28a5.6,5.6,0,0,1,4.88-8.37h16.41a5.62,5.62,0,0,0,5.61-5.62V233.11a5.61,5.61,0,0,1,5.61-5.61h31.43m0-10.21H120.08a15.84,15.84,0,0,0-15.82,15.82V293.7H92.45a15.83,15.83,0,0,0-13.77,23.61l.36.63.45.58,43.78,56.74a15.81,15.81,0,0,0,25,0l43.78-56.74.45-.58.36-.63a15.83,15.83,0,0,0-13.77-23.61H167.33V233.11a15.84,15.84,0,0,0-15.82-15.82Z"/></g><text class="cls-5" transform="translate(47.08 176.72)">docx</text></g></g></g></svg>