<?xml version="1.0" encoding="utf-8"?>
<!-- Generator: Adobe Illustrator 25.3.1, SVG Export Plug-In . SVG Version: 6.00 Build 0)  -->
<svg version="1.1" id="Icons" xmlns="http://www.w3.org/2000/svg" xmlns:xlink="http://www.w3.org/1999/xlink" x="0px" y="0px"
	 viewBox="0 0 271.59 309" style="enable-background:new 0 0 271.59 309;" xml:space="preserve">
<style type="text/css">
	.st0{filter:url(#Adobe_OpacityMaskFilter);}
	.st1{mask:url(#SVGID_1_);}
	.st2{fill:#2B579A;}
	.st3{fill:#1F4068;}
	.st4{fill:#FFFFFF;}
	.st5{fill:#2B579A;stroke:#000000;stroke-width:10;stroke-miterlimit:10;}
	.st6{fill:#E1574C;stroke:#000000;stroke-width:10.207;stroke-miterlimit:10;}
	.st7{fill:none;stroke:#000000;stroke-width:10;stroke-miterlimit:10;}
	.st8{fill:none;stroke:#000000;stroke-width:10.207;stroke-miterlimit:10;}
	.st9{fill:#E1574C;}
	.st10{filter:url(#Adobe_OpacityMaskFilter_1_);}
	.st11{mask:url(#SVGID_2_);fill:#B53528;}
	.st12{filter:url(#Adobe_OpacityMaskFilter_2_);}
	.st13{mask:url(#SVGID_3_);}
	.st14{filter:url(#Adobe_OpacityMaskFilter_3_);}
	.st15{mask:url(#SVGID_4_);fill:#B53528;}
	.st16{filter:url(#Adobe_OpacityMaskFilter_4_);}
	.st17{mask:url(#SVGID_5_);}
	.st18{filter:url(#Adobe_OpacityMaskFilter_5_);}
	.st19{mask:url(#SVGID_6_);}
	.st20{fill:#B53528;}
</style>
<g>
	<g>
		<path class="st4" d="M19.09,304c-8.43,0-15.29-6.86-15.29-15.29V20.29C3.8,11.86,10.66,5,19.09,5h165.65l80.65,80.65v203.06
			c0,8.43-6.86,15.29-15.29,15.29H19.09z"/>
		<path d="M182.67,10l77.72,77.72v200.99c0,5.67-4.62,10.29-10.29,10.29H19.09c-5.67,0-10.29-4.62-10.29-10.29V20.29
			C8.8,14.62,13.42,10,19.09,10H182.67 M186.81,0H19.09C7.88,0-1.2,9.08-1.2,20.29v268.42c0,11.21,9.08,20.29,20.29,20.29H250.1
			c11.21,0,20.29-9.08,20.29-20.29V83.58L186.81,0L186.81,0z"/>
	</g>
	<path class="st7" d="M186.81,6.2v57.9c0,10.76,8.72,19.48,19.48,19.48h57.8"/>
</g>
<g>
	<path d="M70.4,151.1c3.86,0,7.46,1.08,10.51,2.88v-18.6c0-2.88,2.34-5.21,5.21-5.21c2.96,0,5.3,2.34,5.3,5.21v52.47
		c0,2.88-2.34,5.21-5.3,5.21c-2.07,0-3.95-1.26-4.76-3.05c-3.14,1.89-6.92,3.05-10.96,3.05c-11.5,0-20.93-9.43-20.93-20.93
		C49.47,160.54,58.9,151.1,70.4,151.1z M70.4,182.55c5.84,0,10.51-4.67,10.51-10.42c0-5.84-4.67-10.51-10.51-10.51
		c-5.75,0-10.42,4.67-10.42,10.51C59.98,177.88,64.65,182.55,70.4,182.55z"/>
	<path d="M140.57,172.13c0,11.5-9.43,20.93-21.02,20.93c-11.5,0-20.93-9.43-20.93-20.93c0-11.59,9.43-21.02,20.93-21.02
		C131.14,151.1,140.57,160.54,140.57,172.13z M130.06,172.13c0-5.84-4.67-10.51-10.51-10.51c-5.75,0-10.42,4.67-10.42,10.51
		c0,5.75,4.67,10.42,10.42,10.42C125.39,182.55,130.06,177.88,130.06,172.13z"/>
	<path d="M147.76,172.13c0-11.59,8.8-21.02,19.68-21.02c2.79,0,5.48,0.63,8.09,1.89c1.89,0.81,2.96,2.7,2.96,4.67
		c0,0.81-0.18,1.53-0.54,2.25c-0.9,1.89-2.7,3.05-4.67,3.05c-0.72,0-1.53-0.18-2.25-0.54c-1.17-0.54-2.34-0.81-3.59-0.81
		c-5.03,0-9.16,4.67-9.16,10.51c0,5.75,4.13,10.42,9.16,10.42c1.26,0,2.43-0.27,3.59-0.81c0.72-0.36,1.44-0.45,2.16-0.45
		c1.98,0,3.86,1.08,4.76,2.96c0.36,0.72,0.54,1.44,0.54,2.25c0,1.98-1.08,3.86-2.96,4.76c-2.61,1.17-5.3,1.8-8.09,1.8
		C156.56,193.06,147.76,183.63,147.76,172.13z"/>
	<path d="M218.64,184.34c0.72,0.99,1.08,2.16,1.08,3.23c0,1.62-0.72,3.14-2.07,4.13c-0.99,0.72-2.07,1.08-3.14,1.08
		c-1.62,0-3.14-0.72-4.22-2.16l-7.46-9.97l-7.73,10.33c-1.08,1.35-2.61,2.07-4.22,2.07c-1.08,0-2.16-0.36-3.14-1.08
		c-1.35-0.99-2.07-2.52-2.07-4.13c0-1.08,0.36-2.16,1.08-3.14l9.52-12.76l-9.52-12.76c-0.72-0.9-1.08-1.98-1.08-3.05
		c0-1.62,0.72-3.23,2.07-4.22c0.99-0.72,2.07-1.08,3.14-1.08c1.62,0,3.23,0.72,4.22,2.07l7.73,10.33l7.46-9.97
		c0.99-1.35,2.61-2.07,4.22-2.07c1.08,0,2.16,0.27,3.14,0.99c1.35,0.99,2.07,2.52,2.07,4.13c0,1.08-0.36,2.25-1.08,3.23l-9.25,12.4
		L218.64,184.34z"/>
</g>
</svg>
