<svg xmlns="http://www.w3.org/2000/svg" xmlns:xlink="http://www.w3.org/1999/xlink" viewBox="0 0 271.59 381.42"><defs><style>.cls-1{mask:url(#mask);}.cls-2{fill:#2b579a;}.cls-3{fill:#1f4068;}.cls-4{fill:#fff;}.cls-5{filter:url(#luminosity-noclip);}</style><filter id="luminosity-noclip" x="0" y="-113.88" width="385.47" height="422.88" filterUnits="userSpaceOnUse" color-interpolation-filters="sRGB"><feFlood flood-color="#fff" result="bg"/><feBlend in="SourceGraphic" in2="bg"/></filter><mask id="mask" x="0" y="-113.88" width="385.47" height="422.88" maskUnits="userSpaceOnUse"><g class="cls-5"><rect x="190.91" y="-72.51" width="172.48" height="133.91" transform="translate(77.25 -197.6) rotate(45)"/></g></mask></defs><title>dl_docx</title><g id="Layer_2" data-name="Layer 2"><g id="Icons"><g id="dl_docx"><g class="cls-1"><rect class="cls-2" width="271.59" height="309" rx="20.29"/><path class="cls-3" d="M271.59,0H188V64.1a19.48,19.48,0,0,0,19.48,19.48h64.1Z"/></g><g id="Arrow"><path class="cls-2" d="M135.8,376.31a10.66,10.66,0,0,1-8.49-4.17l-44-57-.17-.32a10.72,10.72,0,0,1,9.32-16h16.41a.51.51,0,0,0,.51-.51V233.11a10.72,10.72,0,0,1,10.71-10.71h31.43a10.72,10.72,0,0,1,10.71,10.71V298.3a.5.5,0,0,0,.51.5h16.41a10.72,10.72,0,0,1,9.33,16l-.18.32-44,57A10.64,10.64,0,0,1,135.8,376.31Z"/><path class="cls-4" d="M151.51,227.5a5.61,5.61,0,0,1,5.61,5.61V298.3a5.61,5.61,0,0,0,5.61,5.61h16.41a5.6,5.6,0,0,1,4.88,8.37L140.24,369a5.61,5.61,0,0,1-8.89,0L87.57,312.28a5.6,5.6,0,0,1,4.88-8.37h16.41a5.62,5.62,0,0,0,5.61-5.62V233.11a5.61,5.61,0,0,1,5.61-5.61h31.43m0-10.21H120.08a15.84,15.84,0,0,0-15.82,15.82V293.7H92.45a15.83,15.83,0,0,0-13.77,23.61l.36.63.45.58,43.78,56.74a15.81,15.81,0,0,0,25,0l43.78-56.74.45-.58.36-.63a15.83,15.83,0,0,0-13.77-23.61H167.33V233.11a15.84,15.84,0,0,0-15.82-15.82Z"/></g><path class="cls-4" d="M71.6,134.77a20.69,20.69,0,0,1,10.52,2.87V119a5.26,5.26,0,0,1,10.51,0v52.47a5.23,5.23,0,0,1-5.3,5.21,5.3,5.3,0,0,1-4.77-3.05,21.37,21.37,0,0,1-11,3.05,21,21,0,0,1,0-41.95Zm0,31.44a10.47,10.47,0,1,0-10.42-10.42A10.45,10.45,0,0,0,71.6,166.21Z"/><path class="cls-4" d="M141.77,155.79a21,21,0,1,1-21-21A21,21,0,0,1,141.77,155.79Zm-10.51,0a10.47,10.47,0,1,0-10.51,10.42A10.46,10.46,0,0,0,131.26,155.79Z"/><path class="cls-4" d="M149,155.79c0-11.59,8.8-21,19.67-21a18.37,18.37,0,0,1,8.09,1.88,5,5,0,0,1,3,4.67,4.88,4.88,0,0,1-.54,2.25,5.17,5.17,0,0,1-4.67,3.05,5.1,5.1,0,0,1-2.24-.53,8.41,8.41,0,0,0-3.6-.81c-5,0-9.16,4.67-9.16,10.51s4.13,10.42,9.16,10.42a8.41,8.41,0,0,0,3.6-.81,4.63,4.63,0,0,1,2.15-.45,5.22,5.22,0,0,1,4.76,3,4.87,4.87,0,0,1,.54,2.24,5.24,5.24,0,0,1-3,4.77,19.75,19.75,0,0,1-8.09,1.79C157.76,176.72,149,167.29,149,155.79Z"/><path class="cls-4" d="M219.84,168a5.56,5.56,0,0,1,1.08,3.23,5,5,0,0,1-2.07,4.13,5.28,5.28,0,0,1-3.14,1.08,5.2,5.2,0,0,1-4.22-2.15l-7.46-10-7.73,10.34a5.36,5.36,0,0,1-4.22,2.06,5.28,5.28,0,0,1-3.14-1.08,5,5,0,0,1-2.07-4.13,5.3,5.3,0,0,1,1.08-3.14l9.52-12.76L188,142.85a4.88,4.88,0,0,1-1.08-3,5.24,5.24,0,0,1,2.07-4.23,5.34,5.34,0,0,1,3.14-1.07,5.2,5.2,0,0,1,4.22,2.06L204,146.89l7.46-10a5.21,5.21,0,0,1,4.22-2.06,5.16,5.16,0,0,1,3.14,1,5.07,5.07,0,0,1,2.07,4.14,5.59,5.59,0,0,1-1.08,3.23l-9.25,12.4Z"/></g></g></g></svg>