<svg xmlns="http://www.w3.org/2000/svg" viewBox="0 0 271.59 381.41"><defs><style>.cls-1{fill:#fff;}.cls-2{fill:none;stroke:#000;stroke-miterlimit:10;stroke-width:10.21px;}.cls-3{font-size:89.84px;font-family:Odin-Bold, Odin Rounded;font-weight:700;}</style></defs><title>dl_pdf_print</title><g id="Layer_2" data-name="Layer 2"><g id="Icons"><g id="dl_pdf_print"><path class="cls-1" d="M20.29,303.9A15.21,15.21,0,0,1,5.1,288.71V20.29A15.21,15.21,0,0,1,20.29,5.1H185.9l80.59,80.6v203A15.21,15.21,0,0,1,251.3,303.9Z"/><path d="M183.78,10.21l77.6,77.6v200.9a10.09,10.09,0,0,1-10.08,10.08h-231a10.09,10.09,0,0,1-10.08-10.08V20.29A10.09,10.09,0,0,1,20.29,10.21H183.78M188,0H20.29A20.28,20.28,0,0,0,0,20.29V288.71A20.28,20.28,0,0,0,20.29,309h231a20.28,20.28,0,0,0,20.29-20.29V83.58L188,0Z"/><path class="cls-2" d="M188,6.2V64.1a19.48,19.48,0,0,0,19.48,19.48H265.3"/><text class="cls-3" transform="translate(60.15 176.72)">PDF</text><g id="Printer"><path class="cls-1" d="M198.35,281.13a5.55,5.55,0,0,1,5.55,5.54v44.81a5.55,5.55,0,0,1-5.55,5.54H73.24a5.55,5.55,0,0,1-5.55-5.54V286.67a5.55,5.55,0,0,1,5.55-5.54H198.35m0-20.42H73.24a26,26,0,0,0-26,26v44.81a26,26,0,0,0,26,26H198.35a26,26,0,0,0,26-26V286.67a26,26,0,0,0-26-26Z"/><rect class="cls-1" x="86.89" y="222.4" width="97.81" height="63.71" rx="11.29"/><path d="M173.41,227.5a6.19,6.19,0,0,1,6.19,6.18v41.14a6.19,6.19,0,0,1-6.19,6.19H98.18A6.18,6.18,0,0,1,92,274.82V233.68a6.18,6.18,0,0,1,6.18-6.18h75.23m0-10.21H98.18a16.41,16.41,0,0,0-16.39,16.39v41.14a16.41,16.41,0,0,0,16.39,16.4h75.23a16.41,16.41,0,0,0,16.39-16.4V233.68a16.41,16.41,0,0,0-16.39-16.39Z"/><path class="cls-1" d="M174,324.71a5.56,5.56,0,0,1,5.55,5.55v25.19A5.55,5.55,0,0,1,174,361H97.57A5.55,5.55,0,0,1,92,355.45V330.26a5.56,5.56,0,0,1,5.55-5.55H174m0-20.41H97.57a26,26,0,0,0-26,26v25.19a26,26,0,0,0,26,26H174a26,26,0,0,0,26-26V330.26a26,26,0,0,0-26-26Z"/><rect class="cls-1" x="62.59" y="276.02" width="146.41" height="66.1" rx="10.65"/><path d="M198.35,281.13a5.55,5.55,0,0,1,5.55,5.54v44.81a5.55,5.55,0,0,1-5.55,5.54H73.24a5.55,5.55,0,0,1-5.55-5.54V286.67a5.55,5.55,0,0,1,5.55-5.54H198.35m0-10.21H73.24a15.77,15.77,0,0,0-15.75,15.75v44.81a15.77,15.77,0,0,0,15.75,15.75H198.35a15.77,15.77,0,0,0,15.75-15.75V286.67a15.77,15.77,0,0,0-15.75-15.75Z"/><rect x="77.48" y="288.48" width="31.4" height="9.48" rx="4.74"/><rect class="cls-1" x="86.92" y="319.61" width="97.75" height="46.49" rx="10.65"/><path d="M174,324.71a5.56,5.56,0,0,1,5.55,5.55v25.19A5.55,5.55,0,0,1,174,361H97.57A5.55,5.55,0,0,1,92,355.45V330.26a5.56,5.56,0,0,1,5.55-5.55H174m0-10.2H97.57a15.76,15.76,0,0,0-15.75,15.75v25.19A15.77,15.77,0,0,0,97.57,371.2H174a15.77,15.77,0,0,0,15.75-15.75V330.26A15.76,15.76,0,0,0,174,314.51Z"/><rect x="101.76" y="346.54" width="68.06" height="7.2" rx="3.6"/><rect x="101.76" y="331.97" width="68.06" height="7.2" rx="3.6"/></g></g></g></g></svg>