<?xml version="1.0" encoding="utf-8"?>
<!-- Generator: Adobe Illustrator 25.3.1, SVG Export Plug-In . SVG Version: 6.00 Build 0)  -->
<svg version="1.1" id="Icons" xmlns="http://www.w3.org/2000/svg" xmlns:xlink="http://www.w3.org/1999/xlink" x="0px" y="0px"
	 viewBox="0 0 271.59 309" style="enable-background:new 0 0 271.59 309;" xml:space="preserve">
<style type="text/css">
	.st0{filter:url(#Adobe_OpacityMaskFilter);}
	.st1{mask:url(#SVGID_1_);}
	.st2{fill:#2B579A;}
	.st3{fill:#1F4068;}
	.st4{fill:#FFFFFF;}
	.st5{fill:#2B579A;stroke:#000000;stroke-width:10;stroke-miterlimit:10;}
	.st6{fill:#E1574C;stroke:#000000;stroke-width:10.207;stroke-miterlimit:10;}
	.st7{fill:none;stroke:#000000;stroke-width:10;stroke-miterlimit:10;}
	.st8{fill:none;stroke:#000000;stroke-width:10.207;stroke-miterlimit:10;}
	.st9{fill:#E1574C;}
	.st10{filter:url(#Adobe_OpacityMaskFilter_1_);}
	.st11{mask:url(#SVGID_2_);fill:#B53528;}
	.st12{filter:url(#Adobe_OpacityMaskFilter_2_);}
	.st13{mask:url(#SVGID_3_);}
	.st14{filter:url(#Adobe_OpacityMaskFilter_3_);}
	.st15{mask:url(#SVGID_4_);fill:#B53528;}
	.st16{filter:url(#Adobe_OpacityMaskFilter_4_);}
	.st17{mask:url(#SVGID_5_);}
	.st18{filter:url(#Adobe_OpacityMaskFilter_5_);}
	.st19{mask:url(#SVGID_6_);}
	.st20{fill:#B53528;}
</style>
<g>
	<g>
		<path class="st4" d="M19.09,303.9c-8.37,0-15.19-6.81-15.19-15.19V20.29c0-8.37,6.81-15.19,15.19-15.19H184.7l80.59,80.59v203.01
			c0,8.37-6.81,15.19-15.19,15.19H19.09z"/>
		<path d="M182.58,10.21l77.6,77.6v200.9c0,5.56-4.52,10.08-10.08,10.08H19.09c-5.56,0-10.08-4.52-10.08-10.08V20.29
			c0-5.56,4.52-10.08,10.08-10.08H182.58 M186.81,0H19.09C7.88,0-1.2,9.08-1.2,20.29v268.42c0,11.21,9.08,20.29,20.29,20.29H250.1
			c11.21,0,20.29-9.08,20.29-20.29V83.58L186.81,0L186.81,0z"/>
	</g>
	<path class="st8" d="M186.81,6.2v57.9c0,10.76,8.72,19.48,19.48,19.48h57.8"/>
</g>
<g>
	<path d="M62.54,187.85v-52.47c0-2.88,2.34-5.21,5.21-5.21h14.29c0.54,0,5.3,0.09,10.24,2.52c7.01,3.5,10.87,9.97,10.87,18.42
		c0,0.54-0.09,5.39-2.52,10.24c-3.5,6.92-10.15,10.78-18.6,10.78h-8.98v15.72c0,2.88-2.34,5.21-5.3,5.21
		C64.88,193.06,62.54,190.72,62.54,187.85z M73.05,161.61h8.98c4.49,0,7.37-1.53,9.07-4.76c1.44-2.7,1.53-5.57,1.53-5.75
		c0-4.49-1.62-7.37-5.03-9.07c-2.7-1.35-5.57-1.35-5.57-1.35h-8.98V161.61z"/>
	<path d="M115.55,193.06c-2.88,0-5.21-2.34-5.21-5.21v-52.47c0-2.88,2.34-5.21,5.21-5.21h15.27c0.36,0,26.68-0.09,26.68,31.45
		s-26.32,31.45-26.68,31.45H115.55z M120.85,182.55h9.97c0.27,0,4.31-0.09,8.36-2.7c5.21-3.32,7.82-9.52,7.82-18.24
		c0-8.89-2.7-15.09-8.18-18.42c-3.95-2.43-7.91-2.52-8-2.52h-9.97V182.55z"/>
	<path d="M201.35,130.17c2.88,0,5.3,2.34,5.3,5.21c0,2.96-2.43,5.3-5.3,5.3h-26.14v15.72h20.93c2.88,0,5.21,2.34,5.21,5.21
		s-2.34,5.21-5.21,5.21h-20.93v21.02c0,2.88-2.43,5.21-5.3,5.21s-5.21-2.34-5.21-5.21v-52.47c0-2.88,2.34-5.21,5.21-5.21H201.35z"/>
</g>
</svg>
