<svg xmlns="http://www.w3.org/2000/svg" xmlns:xlink="http://www.w3.org/1999/xlink" viewBox="0 0 271.59 381.42"><defs><style>.cls-1{fill:#e1574c;}.cls-2{mask:url(#mask);}.cls-3{fill:#b53528;}.cls-4{fill:#fff;}.cls-5{filter:url(#luminosity-noclip);}</style><filter id="luminosity-noclip" x="168.82" y="-113.88" width="216.65" height="216.65" filterUnits="userSpaceOnUse" color-interpolation-filters="sRGB"><feFlood flood-color="#fff" result="bg"/><feBlend in="SourceGraphic" in2="bg"/></filter><mask id="mask" x="168.82" y="-113.88" width="216.65" height="216.65" maskUnits="userSpaceOnUse"><g class="cls-5"><rect x="190.91" y="-72.51" width="172.48" height="133.91" transform="translate(77.25 -197.6) rotate(45)"/></g></mask></defs><g id="Layer_2" data-name="Layer 2"><g id="Icons"><g id="dl_pdf"><path class="cls-1" d="M188,0H20.29A20.28,20.28,0,0,0,0,20.29V288.71A20.28,20.28,0,0,0,20.29,309h231a20.28,20.28,0,0,0,20.29-20.29V83.58Z"/><g class="cls-2"><path class="cls-3" d="M271.59,0H188V64.1a19.48,19.48,0,0,0,19.48,19.48h64.1Z"/></g><g id="Arrow"><path class="cls-1" d="M135.8,376.31a10.64,10.64,0,0,1-8.49-4.17l-44-57-.18-.32a10.72,10.72,0,0,1,9.33-16h16.41a.51.51,0,0,0,.51-.51V233.11a10.72,10.72,0,0,1,10.71-10.71h31.43a10.72,10.72,0,0,1,10.71,10.71V298.3a.5.5,0,0,0,.51.5h16.41a10.72,10.72,0,0,1,9.33,16l-.18.32-44,57A10.64,10.64,0,0,1,135.8,376.31Z"/><path class="cls-4" d="M151.51,227.5a5.61,5.61,0,0,1,5.61,5.61V298.3a5.61,5.61,0,0,0,5.61,5.61h16.41a5.6,5.6,0,0,1,4.88,8.37L140.24,369a5.61,5.61,0,0,1-8.89,0L87.57,312.28a5.6,5.6,0,0,1,4.88-8.37h16.41a5.62,5.62,0,0,0,5.61-5.62V233.11a5.61,5.61,0,0,1,5.61-5.61h31.43m0-10.21H120.08a15.84,15.84,0,0,0-15.82,15.82V293.7H92.45a15.83,15.83,0,0,0-13.77,23.61l.36.63.45.58,43.78,56.74a15.81,15.81,0,0,0,25,0l43.79-56.74.44-.58.36-.63a15.83,15.83,0,0,0-13.77-23.61H167.33V233.11a15.84,15.84,0,0,0-15.82-15.82Z"/></g><path class="cls-4" d="M63.74,171.51V119A5.22,5.22,0,0,1,69,113.83H83.24a25.27,25.27,0,0,1,10.24,2.52c7,3.5,10.87,10,10.87,18.42A25.11,25.11,0,0,1,101.84,145c-3.51,6.92-10.16,10.78-18.6,10.78h-9v15.72a5.26,5.26,0,0,1-10.51,0Zm10.51-26.23h9c4.49,0,7.37-1.53,9.07-4.76a14.06,14.06,0,0,0,1.53-5.75c0-4.5-1.62-7.37-5-9.08a14,14,0,0,0-5.57-1.35h-9Z"/><path class="cls-4" d="M116.75,176.72a5.21,5.21,0,0,1-5.21-5.21V119a5.21,5.21,0,0,1,5.21-5.21H132c.36,0,26.69-.09,26.69,31.45S132.38,176.72,132,176.72Zm5.3-10.51h10a17.07,17.07,0,0,0,8.36-2.69c5.21-3.33,7.81-9.53,7.81-18.24,0-8.9-2.69-15.1-8.17-18.42a17.39,17.39,0,0,0-8-2.52h-10Z"/><path class="cls-4" d="M202.55,113.83a5.26,5.26,0,1,1,0,10.51H176.4v15.73h20.94a5.21,5.21,0,0,1,0,10.42H176.4v21a5.28,5.28,0,0,1-5.3,5.21,5.21,5.21,0,0,1-5.21-5.21V119a5.22,5.22,0,0,1,5.21-5.21Z"/></g></g></g></svg>