<?xml version="1.0" encoding="utf-8"?>
<!-- Generator: Adobe Illustrator 24.1.3, SVG Export Plug-In . SVG Version: 6.00 Build 0)  -->
<svg version="1.1" id="Layer_1" xmlns="http://www.w3.org/2000/svg" xmlns:xlink="http://www.w3.org/1999/xlink" x="0px" y="0px"
	 viewBox="0 0 257 257" style="enable-background:new 0 0 257 257;" xml:space="preserve">
<style type="text/css">
	.st0{fill:#FFFFFF;}
</style>
<g>
	<g>
		<path class="st0" d="M203.68,200.38H97.01c-10.95,0-19.83-8.88-19.83-19.83V30.83C77.18,19.88,86.06,11,97.01,11h106.68
			c10.95,0,19.83,8.88,19.83,19.83v149.72C223.51,191.5,214.64,200.38,203.68,200.38z"/>
		<path d="M203.68,211.34H97.01c-16.98,0-30.8-13.81-30.8-30.8V30.83c0-16.98,13.81-30.8,30.8-30.8h106.68
			c16.98,0,30.8,13.81,30.8,30.8v149.72C234.48,197.53,220.67,211.34,203.68,211.34z M97.01,21.97c-4.89,0-8.86,3.98-8.86,8.86
			v149.72c0,4.89,3.98,8.86,8.86,8.86h106.68c4.89,0,8.86-3.98,8.86-8.86V30.83c0-4.89-3.98-8.86-8.86-8.86H97.01z"/>
	</g>
	<g>
		<path class="st0" d="M157.99,246.07H51.32c-10.95,0-19.83-8.88-19.83-19.83V76.52c0-10.95,8.88-19.83,19.83-19.83h106.68
			c10.95,0,19.83,8.88,19.83,19.83v149.72C177.82,237.19,168.94,246.07,157.99,246.07z"/>
		<path d="M157.99,257.04H51.31c-16.98,0-30.8-13.81-30.8-30.8V76.52c0-16.98,13.81-30.8,30.8-30.8h106.68
			c16.98,0,30.8,13.81,30.8,30.8v149.72C188.79,243.22,174.97,257.04,157.99,257.04z M51.31,67.66c-4.89,0-8.86,3.98-8.86,8.86
			v149.72c0,4.89,3.98,8.86,8.86,8.86h106.68c4.89,0,8.86-3.98,8.86-8.86V76.52c0-4.89-3.98-8.86-8.86-8.86H51.31z"/>
	</g>
</g>
</svg>
