<?xml version="1.0" encoding="utf-8"?>
<!-- Generator: Adobe Illustrator 24.1.3, SVG Export Plug-In . SVG Version: 6.00 Build 0)  -->
<svg version="1.1" id="Layer_5" xmlns="http://www.w3.org/2000/svg" xmlns:xlink="http://www.w3.org/1999/xlink" x="0px" y="0px"
	 viewBox="0 0 667.19 444.65" style="enable-background:new 0 0 667.19 444.65;" xml:space="preserve">
<style type="text/css">
	.st0{fill:#FFFFFF;}
	.st1{fill:none;stroke:#FFFFFF;stroke-width:36;stroke-miterlimit:10;}
	.st2{filter:url(#Adobe_OpacityMaskFilter);}
	.st3{mask:url(#SVGID_1_);fill:none;stroke:#FFFFFF;stroke-width:36;stroke-miterlimit:10;}
</style>
<g>
	<path d="M658.36,406.93c5.63-10.3,8.84-22.11,8.84-34.68V72.4c0-15.39-4.81-29.64-13-41.37L468.33,216.9L658.36,406.93z"/>
	<path d="M594.79,0H72.4C60.89,0,50.02,2.7,40.36,7.48L316.1,283.22c4.67,4.67,10.89,7.25,17.49,7.25c6.61,0,12.82-2.57,17.5-7.25
		L626.84,7.48C617.18,2.7,606.3,0,594.79,0z"/>
	<path d="M13,31.03C4.81,42.76,0,57.01,0,72.4v299.85c0,12.57,3.2,24.38,8.84,34.68L198.87,216.9L13,31.03z"/>
	<path d="M72.4,444.65h522.39c14.35,0,27.72-4.19,38.97-11.4l-190.9-190.9l-66.32,66.32c-11.47,11.47-26.73,17.79-42.95,17.79
		c-16.22,0-31.48-6.32-42.95-17.79l-66.32-66.32l-190.9,190.9C44.68,440.46,58.05,444.65,72.4,444.65z"/>
</g>
</svg>
