<?xml version="1.0" encoding="utf-8"?>
<!-- Generator: Adobe Illustrator 24.1.3, SVG Export Plug-In . SVG Version: 6.00 Build 0)  -->
<svg version="1.1" id="Layer_5" xmlns="http://www.w3.org/2000/svg" xmlns:xlink="http://www.w3.org/1999/xlink" x="0px" y="0px"
	 viewBox="0 0 712.2 489.65" style="enable-background:new 0 0 712.2 489.65;" xml:space="preserve">
<style type="text/css">
	.st0{fill:#FFFFFF;}
	.st1{fill:none;stroke:#FFFFFF;stroke-width:36;stroke-miterlimit:10;}
	.st2{filter:url(#Adobe_OpacityMaskFilter);}
	.st3{mask:url(#SVGID_1_);fill:none;stroke:#FFFFFF;stroke-width:36;stroke-miterlimit:10;}
	.st4{fill:#FFFFFF;stroke:#000000;stroke-width:36;stroke-miterlimit:10;}
	.st5{fill:none;stroke:#000000;stroke-width:36;stroke-miterlimit:10;}
	.st6{filter:url(#Adobe_OpacityMaskFilter_1_);}
	.st7{mask:url(#SVGID_2_);fill:none;stroke:#000000;stroke-width:36;stroke-miterlimit:10;}
	.st8{fill:none;stroke:#000000;stroke-width:9;stroke-linecap:round;stroke-linejoin:round;stroke-miterlimit:10;}
</style>
<path d="M693.17,37.95L693.17,37.95c-7.73-10.27-17.25-18.72-28.29-25.13C650.49,4.43,634.03,0,617.3,0H94.9
	C78.17,0,61.71,4.43,47.33,12.82c-11.05,6.41-20.57,14.87-28.3,25.14C6.58,54.5,0,74.19,0,94.9v299.85
	c0,17.81,4.98,35.17,14.39,50.2c6.78,10.85,15.53,20.08,25.99,27.43c16.03,11.3,34.88,17.27,54.51,17.27h522.4
	c19.63,0,38.48-5.97,54.51-17.27c10.47-7.36,19.21-16.59,26-27.43c9.42-15.03,14.4-32.39,14.4-50.2V94.9
	C712.2,74.19,705.62,54.5,693.17,37.95z M667.2,94.9v299.85c0,4.42-0.57,8.76-1.7,12.96L497.19,239.4L662.6,73.99
	C665.62,80.51,667.2,87.64,667.2,94.9z M246.83,271.22l63.14,63.14c12.3,12.3,28.69,19.08,46.13,19.08
	c17.45,0,33.83-6.78,46.13-19.08l63.15-63.14l170.03,170.03c-5.75,2.24-11.91,3.4-18.11,3.4H94.9c-6.2,0-12.36-1.17-18.1-3.4
	L246.83,271.22z M356.1,308.46c-5.42,0-10.5-2.1-14.32-5.92L85.19,45.95C88.37,45.32,91.61,45,94.9,45h522.4
	c3.29,0,6.53,0.32,9.71,0.95L370.42,302.54C366.6,306.36,361.52,308.46,356.1,308.46z M215.01,239.4L46.7,407.71
	c-1.13-4.2-1.7-8.54-1.7-12.96V94.9c0-7.26,1.58-14.39,4.6-20.91L215.01,239.4z"/>
</svg>
